<?xml version="1.0" encoding="UTF-8" standalone="no"?>
<!-- Created with Inkscape (http://www.inkscape.org/) -->

<svg
   version="1.1"
   id="svg2"
   width="907.47644"
   height="517.66364"
   viewBox="0 0 907.47644 517.66364"
   sodipodi:docname="RADseq_schematic.svg"
   inkscape:version="1.2.2 (b0a8486541, 2022-12-01)"
   xmlns:inkscape="http://www.inkscape.org/namespaces/inkscape"
   xmlns:sodipodi="http://sodipodi.sourceforge.net/DTD/sodipodi-0.dtd"
   xmlns="http://www.w3.org/2000/svg"
   xmlns:svg="http://www.w3.org/2000/svg">
  <defs
     id="defs6" />
  <sodipodi:namedview
     id="namedview4"
     pagecolor="#ffffff"
     bordercolor="#666666"
     borderopacity="1.0"
     inkscape:showpageshadow="2"
     inkscape:pageopacity="0.0"
     inkscape:pagecheckerboard="0"
     inkscape:deskcolor="#d1d1d1"
     showgrid="false"
     inkscape:zoom="1.0335442"
     inkscape:cx="503.12313"
     inkscape:cy="274.29886"
     inkscape:window-width="1920"
     inkscape:window-height="1044"
     inkscape:window-x="5760"
     inkscape:window-y="0"
     inkscape:window-maximized="1"
     inkscape:current-layer="g10">
    <inkscape:page
       x="0"
       y="0"
       id="page8"
       width="907.47644"
       height="517.66364" />
  </sodipodi:namedview>
  <g
     id="g10"
     inkscape:groupmode="layer"
     inkscape:label="Page 1"
     transform="translate(-78.242577,-149.6749)">
    <g
       id="g22">
      <path
         d="M 99.199997,232 H 483.20001 v 14.39999 H 99.199997 Z"
         style="fill:#00b8ff;fill-opacity:1;fill-rule:nonzero;stroke:none"
         id="path24" />
    </g>
    <g
       id="g26"
       transform="translate(98.720001,232)">
      <path
         d="m 0,0 c 0,-0.16 0.32,-0.48 0.48,-0.48 h 384.00001 c 0.31998,0 0.63999,0.32 0.63999,0.48 v 14.4 c 0,0.32 -0.32001,0.64 -0.63999,0.64 L 0.48,15.04 C 0.32,15.04 0,14.72 0,14.4 Z M 1.12,14.4 0.48,13.92 H 384.48001 L 384,14.4 V 0 l 0.48001,0.64 H 0.48 L 1.12,0 Z"
         style="fill:#000000;fill-opacity:1;fill-rule:nonzero;stroke:none"
         id="path28" />
    </g>
    <g
       id="g30">
      <path
         d="m 152,232 h 9.60001 v 14.39999 H 152 Z"
         style="fill:#ffff00;fill-opacity:1;fill-rule:nonzero;stroke:none"
         id="path32" />
    </g>
    <g
       id="g34"
       transform="translate(151.52,232)">
      <path
         d="m 0,0 c 0,-0.16 0.32,-0.48 0.48,-0.48 h 9.6 c 0.32,0 0.64,0.32 0.64,0.48 v 14.4 c 0,0.32 -0.32,0.64 -0.64,0.64 H 0.48 C 0.32,15.04 0,14.72 0,14.4 Z M 1.12,14.4 0.48,13.92 h 9.6 L 9.6,14.4 V 0 l 0.48,0.64 H 0.48 L 1.12,0 Z"
         style="fill:#000000;fill-opacity:1;fill-rule:nonzero;stroke:none"
         id="path36" />
    </g>
    <g
       id="g38">
      <path
         d="M 222.39999,232 H 232 v 14.39999 h -9.60001 z"
         style="fill:#ffff00;fill-opacity:1;fill-rule:nonzero;stroke:none"
         id="path40" />
    </g>
    <g
       id="g42"
       transform="translate(221.92,232)">
      <path
         d="m 0,0 c 0,-0.16 0.32,-0.48 0.48,-0.48 h 9.6 c 0.32,0 0.64,0.32 0.64,0.48 v 14.4 c 0,0.32 -0.32,0.64 -0.64,0.64 H 0.48 C 0.32,15.04 0,14.72 0,14.4 Z M 1.12,14.4 0.48,13.92 h 9.6 L 9.6,14.4 V 0 l 0.48,0.64 H 0.48 L 1.12,0 Z"
         style="fill:#000000;fill-opacity:1;fill-rule:nonzero;stroke:none"
         id="path44" />
    </g>
    <g
       id="g46">
      <path
         d="M 302.39999,232 H 312 v 14.39999 h -9.60001 z"
         style="fill:#ffff00;fill-opacity:1;fill-rule:nonzero;stroke:none"
         id="path48" />
    </g>
    <g
       id="g50"
       transform="translate(301.92001,232)">
      <path
         d="m 0,0 c 0,-0.16 0.32,-0.48 0.48,-0.48 h 9.6 c 0.32,0 0.64,0.32 0.64,0.48 v 14.4 c 0,0.32 -0.32,0.64 -0.64,0.64 H 0.48 C 0.32,15.04 0,14.72 0,14.4 Z M 1.12,14.4 0.48,13.92 h 9.6 L 9.6,14.4 V 0 l 0.48,0.64 H 0.48 L 1.12,0 Z"
         style="fill:#000000;fill-opacity:1;fill-rule:nonzero;stroke:none"
         id="path52" />
    </g>
    <g
       id="g54">
      <path
         d="M 454.39999,232 H 464 v 14.39999 h -9.60001 z"
         style="fill:#ffff00;fill-opacity:1;fill-rule:nonzero;stroke:none"
         id="path56" />
    </g>
    <g
       id="g58"
       transform="translate(453.92001,232)">
      <path
         d="m 0,0 c 0,-0.16 0.32,-0.48 0.48,-0.48 h 9.6 c 0.32,0 0.64,0.32 0.64,0.48 v 14.4 c 0,0.32 -0.32,0.64 -0.64,0.64 H 0.48 C 0.32,15.04 0,14.72 0,14.4 Z M 1.12,14.4 0.48,13.92 h 9.6 L 9.6,14.4 V 0 l 0.48,0.64 H 0.48 L 1.12,0 Z"
         style="fill:#000000;fill-opacity:1;fill-rule:nonzero;stroke:none"
         id="path60" />
    </g>
    <g
       id="g62">
      <path
         d="m 184,232 h 9.60001 v 14.39999 H 184 Z"
         style="fill:#000000;fill-opacity:1;fill-rule:nonzero;stroke:none"
         id="path64" />
    </g>
    <g
       id="g66"
       transform="translate(183.52,232)">
      <path
         d="m 0,0 c 0,-0.16 0.32,-0.48 0.48,-0.48 h 9.6 c 0.32,0 0.64,0.32 0.64,0.48 v 14.4 c 0,0.32 -0.32,0.64 -0.64,0.64 H 0.48 C 0.32,15.04 0,14.72 0,14.4 Z M 1.12,14.4 0.48,13.92 h 9.6 L 9.6,14.4 V 0 l 0.48,0.64 H 0.48 L 1.12,0 Z"
         style="fill:#000000;fill-opacity:1;fill-rule:nonzero;stroke:none"
         id="path68" />
    </g>
    <g
       id="g70">
      <path
         d="M 286.39999,232 H 296 v 14.39999 h -9.60001 z"
         style="fill:#000000;fill-opacity:1;fill-rule:nonzero;stroke:none"
         id="path72" />
    </g>
    <g
       id="g74"
       transform="translate(285.92001,232)">
      <path
         d="m 0,0 c 0,-0.16 0.32,-0.48 0.48,-0.48 h 9.6 c 0.32,0 0.64,0.32 0.64,0.48 v 14.4 c 0,0.32 -0.32,0.64 -0.64,0.64 H 0.48 C 0.32,15.04 0,14.72 0,14.4 Z M 1.12,14.4 0.48,13.92 h 9.6 L 9.6,14.4 V 0 l 0.48,0.64 H 0.48 L 1.12,0 Z"
         style="fill:#000000;fill-opacity:1;fill-rule:nonzero;stroke:none"
         id="path76" />
    </g>
    <g
       id="g78">
      <path
         d="M 358.39999,232 H 368 v 14.39999 h -9.60001 z"
         style="fill:#000000;fill-opacity:1;fill-rule:nonzero;stroke:none"
         id="path80" />
    </g>
    <g
       id="g82"
       transform="translate(357.92001,232)">
      <path
         d="m 0,0 c 0,-0.16 0.32,-0.48 0.48,-0.48 h 9.6 c 0.32,0 0.64,0.32 0.64,0.48 v 14.4 c 0,0.32 -0.32,0.64 -0.64,0.64 H 0.48 C 0.32,15.04 0,14.72 0,14.4 Z M 1.12,14.4 0.48,13.92 h 9.6 L 9.6,14.4 V 0 l 0.48,0.64 H 0.48 L 1.12,0 Z"
         style="fill:#000000;fill-opacity:1;fill-rule:nonzero;stroke:none"
         id="path84" />
    </g>
    <g
       id="g86">
      <path
         d="m 104,345.60001 h 76.8 V 360 H 104 Z"
         style="fill:#00b8ff;fill-opacity:1;fill-rule:nonzero;stroke:none"
         id="path88" />
    </g>
    <g
       id="g90"
       transform="translate(103.52,345.60001)">
      <path
         d="m 0,0 c 0,-0.16 0.32,-0.48 0.48,-0.48 h 76.799999 c 0.319999,0 0.639999,0.32 0.639999,0.48 v 14.4 c 0,0.32 -0.32,0.64 -0.639999,0.64 L 0.48,15.04 C 0.32,15.04 0,14.72 0,14.4 Z M 1.12,14.4 0.48,13.92 H 77.279999 L 76.800003,14.4 V 0 l 0.479996,0.64 H 0.48 L 1.12,0 Z"
         style="fill:#000000;fill-opacity:1;fill-rule:nonzero;stroke:none"
         id="path92" />
    </g>
    <g
       id="g94">
      <path
         d="m 152,345.60001 h 9.60001 V 360 H 152 Z"
         style="fill:#ffff00;fill-opacity:1;fill-rule:nonzero;stroke:none"
         id="path96" />
    </g>
    <g
       id="g98"
       transform="translate(151.52,345.60001)">
      <path
         d="m 0,0 c 0,-0.16 0.32,-0.48 0.48,-0.48 h 9.6 c 0.32,0 0.64,0.32 0.64,0.48 v 14.4 c 0,0.32 -0.32,0.64 -0.64,0.64 H 0.48 C 0.32,15.04 0,14.72 0,14.4 Z M 1.12,14.4 0.48,13.92 h 9.6 L 9.6,14.4 V 0 l 0.48,0.64 H 0.48 L 1.12,0 Z"
         style="fill:#000000;fill-opacity:1;fill-rule:nonzero;stroke:none"
         id="path100" />
    </g>
    <g
       id="g102">
      <path
         d="M 376,345.60001 H 491.20001 V 360 H 376 Z"
         style="fill:#00b8ff;fill-opacity:1;fill-rule:nonzero;stroke:none"
         id="path104" />
    </g>
    <g
       id="g106"
       transform="translate(375.51999,345.60001)">
      <path
         d="m 0,0 c 0,-0.16 0.32,-0.48 0.48,-0.48 h 115.2 c 0.32,0 0.64,0.32 0.64,0.48 v 14.4 c 0,0.32 -0.32,0.64 -0.64,0.64 H 0.48 C 0.32,15.04 0,14.72 0,14.4 Z M 1.12,14.4 0.48,13.92 h 115.2 L 115.2,14.4 V 0 l 0.48,0.64 H 0.48 L 1.12,0 Z"
         style="fill:#000000;fill-opacity:1;fill-rule:nonzero;stroke:none"
         id="path108" />
    </g>
    <g
       id="g110">
      <path
         d="M 454.39999,345.60001 H 464 V 360 h -9.60001 z"
         style="fill:#ffff00;fill-opacity:1;fill-rule:nonzero;stroke:none"
         id="path112" />
    </g>
    <g
       id="g114"
       transform="translate(453.92001,345.60001)">
      <path
         d="m 0,0 c 0,-0.16 0.32,-0.48 0.48,-0.48 h 9.6 c 0.32,0 0.64,0.32 0.64,0.48 v 14.4 c 0,0.32 -0.32,0.64 -0.64,0.64 H 0.48 C 0.32,15.04 0,14.72 0,14.4 Z M 1.12,14.4 0.48,13.92 h 9.6 L 9.6,14.4 V 0 l 0.48,0.64 H 0.48 L 1.12,0 Z"
         style="fill:#000000;fill-opacity:1;fill-rule:nonzero;stroke:none"
         id="path116" />
    </g>
    <g
       id="g118">
      <path
         d="m 304,345.60001 h 57.60001 V 360 H 304 Z"
         style="fill:#00b8ff;fill-opacity:1;fill-rule:nonzero;stroke:none"
         id="path120" />
    </g>
    <g
       id="g122"
       transform="translate(303.51999,345.60001)">
      <path
         d="m 0,0 c 0,-0.16 0.32,-0.48 0.48,-0.48 h 57.600002 c 0.32,0 0.639999,0.32 0.639999,0.48 v 14.4 c 0,0.32 -0.319999,0.64 -0.639999,0.64 L 0.48,15.04 C 0.32,15.04 0,14.72 0,14.4 Z M 1.12,14.4 0.48,13.92 H 58.080002 L 57.599998,14.4 V 0 l 0.480004,0.64 H 0.48 L 1.12,0 Z"
         style="fill:#000000;fill-opacity:1;fill-rule:nonzero;stroke:none"
         id="path124" />
    </g>
    <g
       id="g126">
      <path
         d="M 310.39999,345.60001 H 320 V 360 h -9.60001 z"
         style="fill:#ffff00;fill-opacity:1;fill-rule:nonzero;stroke:none"
         id="path128" />
    </g>
    <g
       id="g130"
       transform="translate(309.92001,345.60001)">
      <path
         d="m 0,0 c 0,-0.16 0.32,-0.48 0.48,-0.48 h 9.6 c 0.32,0 0.64,0.32 0.64,0.48 v 14.4 c 0,0.32 -0.32,0.64 -0.64,0.64 H 0.48 C 0.32,15.04 0,14.72 0,14.4 Z M 1.12,14.4 0.48,13.92 h 9.6 L 9.6,14.4 V 0 l 0.48,0.64 H 0.48 L 1.12,0 Z"
         style="fill:#000000;fill-opacity:1;fill-rule:nonzero;stroke:none"
         id="path132" />
    </g>
    <g
       id="g134">
      <path
         d="m 195.2,345.60001 h 96.00001 V 360 H 195.2 Z"
         style="fill:#00b8ff;fill-opacity:1;fill-rule:nonzero;stroke:none"
         id="path136" />
    </g>
    <g
       id="g138"
       transform="translate(194.72,345.60001)">
      <path
         d="m 0,0 c 0,-0.16 0.32,-0.48 0.48,-0.48 h 96.000003 c 0.32,0 0.64,0.32 0.64,0.48 v 14.4 c 0,0.32 -0.32,0.64 -0.64,0.64 L 0.48,15.04 C 0.32,15.04 0,14.72 0,14.4 Z M 1.12,14.4 0.48,13.92 H 96.480003 L 96,14.4 V 0 l 0.480003,0.64 H 0.48 L 1.12,0 Z"
         style="fill:#000000;fill-opacity:1;fill-rule:nonzero;stroke:none"
         id="path140" />
    </g>
    <g
       id="g142">
      <path
         d="M 222.39999,345.60001 H 232 V 360 h -9.60001 z"
         style="fill:#ffff00;fill-opacity:1;fill-rule:nonzero;stroke:none"
         id="path144" />
    </g>
    <g
       id="g146"
       transform="translate(221.92,345.60001)">
      <path
         d="m 0,0 c 0,-0.16 0.32,-0.48 0.48,-0.48 h 9.6 c 0.32,0 0.64,0.32 0.64,0.48 v 14.4 c 0,0.32 -0.32,0.64 -0.64,0.64 H 0.48 C 0.32,15.04 0,14.72 0,14.4 Z M 1.12,14.4 0.48,13.92 h 9.6 L 9.6,14.4 V 0 l 0.48,0.64 H 0.48 L 1.12,0 Z"
         style="fill:#000000;fill-opacity:1;fill-rule:nonzero;stroke:none"
         id="path148" />
    </g>
    <g
       id="g150">
      <path
         d="M 372.79999,441.60001 H 488 V 456 H 372.79999 Z"
         style="fill:#00b8ff;fill-opacity:1;fill-rule:nonzero;stroke:none"
         id="path152" />
    </g>
    <g
       id="g154"
       transform="translate(372.32001,441.60001)">
      <path
         d="m 0,0 c 0,-0.16 0.32,-0.48 0.48,-0.48 h 115.2 c 0.32,0 0.64,0.32 0.64,0.48 v 14.4 c 0,0.32 -0.32,0.64 -0.64,0.64 H 0.48 C 0.32,15.04 0,14.72 0,14.4 Z M 1.12,14.4 0.48,13.92 h 115.2 L 115.2,14.4 V 0 l 0.48,0.64 H 0.48 L 1.12,0 Z"
         style="fill:#000000;fill-opacity:1;fill-rule:nonzero;stroke:none"
         id="path156" />
    </g>
    <g
       id="g158">
      <path
         d="m 451.20001,441.60001 h 9.59998 V 456 h -9.59998 z"
         style="fill:#ffff00;fill-opacity:1;fill-rule:nonzero;stroke:none"
         id="path160" />
    </g>
    <g
       id="g162"
       transform="translate(450.72,441.60001)">
      <path
         d="m 0,0 c 0,-0.16 0.32,-0.48 0.48,-0.48 h 9.6 c 0.32,0 0.64,0.32 0.64,0.48 v 14.4 c 0,0.32 -0.32,0.64 -0.64,0.64 H 0.48 C 0.32,15.04 0,14.72 0,14.4 Z M 1.12,14.4 0.48,13.92 h 9.6 L 9.6,14.4 V 0 l 0.48,0.64 H 0.48 L 1.12,0 Z"
         style="fill:#000000;fill-opacity:1;fill-rule:nonzero;stroke:none"
         id="path164" />
    </g>
    <g
       id="g166">
      <path
         d="m 192,441.60001 h 96 V 456 h -96 z"
         style="fill:#00b8ff;fill-opacity:1;fill-rule:nonzero;stroke:none"
         id="path168" />
    </g>
    <g
       id="g170"
       transform="translate(191.52,441.60001)">
      <path
         d="m 0,0 c 0,-0.16 0.32,-0.48 0.48,-0.48 h 96.000003 c 0.32,0 0.64,0.32 0.64,0.48 v 14.4 c 0,0.32 -0.32,0.64 -0.64,0.64 L 0.48,15.04 C 0.32,15.04 0,14.72 0,14.4 Z M 1.12,14.4 0.48,13.92 H 96.480003 L 96,14.4 V 0 l 0.480003,0.64 H 0.48 L 1.12,0 Z"
         style="fill:#000000;fill-opacity:1;fill-rule:nonzero;stroke:none"
         id="path172" />
    </g>
    <g
       id="g174">
      <path
         d="m 219.2,441.60001 h 9.6 V 456 h -9.6 z"
         style="fill:#ffff00;fill-opacity:1;fill-rule:nonzero;stroke:none"
         id="path176" />
    </g>
    <g
       id="g178"
       transform="translate(218.72,441.60001)">
      <path
         d="m 0,0 c 0,-0.16 0.32,-0.48 0.48,-0.48 h 9.6 c 0.32,0 0.64,0.32 0.64,0.48 v 14.4 c 0,0.32 -0.32,0.64 -0.64,0.64 H 0.48 C 0.32,15.04 0,14.72 0,14.4 Z M 1.12,14.4 0.48,13.92 h 9.6 L 9.6,14.4 V 0 l 0.48,0.64 H 0.48 L 1.12,0 Z"
         style="fill:#000000;fill-opacity:1;fill-rule:nonzero;stroke:none"
         id="path180" />
    </g>
    <g
       id="g182">
      <path
         d="m 568,232 h 384 v 14.39999 H 568 Z"
         style="fill:#ff9900;fill-opacity:1;fill-rule:nonzero;stroke:none"
         id="path184" />
    </g>
    <g
       id="g186"
       transform="translate(567.52002,232)">
      <path
         d="m 0,0 c 0,-0.16 0.32,-0.48 0.48,-0.48 h 384.00001 c 0.31998,0 0.63999,0.32 0.63999,0.48 v 14.4 c 0,0.32 -0.32001,0.64 -0.63999,0.64 L 0.48,15.04 C 0.32,15.04 0,14.72 0,14.4 Z M 1.12,14.4 0.48,13.92 H 384.48001 L 384,14.4 V 0 l 0.48001,0.64 H 0.48 L 1.12,0 Z"
         style="fill:#000000;fill-opacity:1;fill-rule:nonzero;stroke:none"
         id="path188" />
    </g>
    <g
       id="g190">
      <path
         d="m 620.79999,232 h 9.60003 v 14.39999 h -9.60003 z"
         style="fill:#ffff00;fill-opacity:1;fill-rule:nonzero;stroke:none"
         id="path192" />
    </g>
    <g
       id="g194"
       transform="translate(620.32001,232)">
      <path
         d="m 0,0 c 0,-0.16 0.32,-0.48 0.48,-0.48 h 9.6 c 0.32,0 0.64,0.32 0.64,0.48 v 14.4 c 0,0.32 -0.32,0.64 -0.64,0.64 H 0.48 C 0.32,15.04 0,14.72 0,14.4 Z M 1.12,14.4 0.48,13.92 h 9.6 L 9.6,14.4 V 0 l 0.48,0.64 H 0.48 L 1.12,0 Z"
         style="fill:#000000;fill-opacity:1;fill-rule:nonzero;stroke:none"
         id="path196" />
    </g>
    <g
       id="g198">
      <path
         d="m 691.20001,232 h 9.59998 v 14.39999 h -9.59998 z"
         style="fill:#ffff00;fill-opacity:1;fill-rule:nonzero;stroke:none"
         id="path200" />
    </g>
    <g
       id="g202"
       transform="translate(690.71997,232)">
      <path
         d="m 0,0 c 0,-0.16 0.32,-0.48 0.48,-0.48 h 9.6 c 0.32,0 0.64,0.32 0.64,0.48 v 14.4 c 0,0.32 -0.32,0.64 -0.64,0.64 H 0.48 C 0.32,15.04 0,14.72 0,14.4 Z M 1.12,14.4 0.48,13.92 h 9.6 L 9.6,14.4 V 0 l 0.48,0.64 H 0.48 L 1.12,0 Z"
         style="fill:#000000;fill-opacity:1;fill-rule:nonzero;stroke:none"
         id="path204" />
    </g>
    <g
       id="g206">
      <path
         d="m 771.20001,232 h 9.59998 v 14.39999 h -9.59998 z"
         style="fill:#ffff00;fill-opacity:1;fill-rule:nonzero;stroke:none"
         id="path208" />
    </g>
    <g
       id="g210"
       transform="translate(770.71997,232)">
      <path
         d="m 0,0 c 0,-0.16 0.32,-0.48 0.48,-0.48 h 9.6 c 0.32,0 0.64,0.32 0.64,0.48 v 14.4 c 0,0.32 -0.32,0.64 -0.64,0.64 H 0.48 C 0.32,15.04 0,14.72 0,14.4 Z M 1.12,14.4 0.48,13.92 h 9.6 L 9.6,14.4 V 0 l 0.48,0.64 H 0.48 L 1.12,0 Z"
         style="fill:#000000;fill-opacity:1;fill-rule:nonzero;stroke:none"
         id="path212" />
    </g>
    <g
       id="g214">
      <path
         d="m 923.20001,232 h 9.59998 v 14.39999 h -9.59998 z"
         style="fill:#ffff00;fill-opacity:1;fill-rule:nonzero;stroke:none"
         id="path216" />
    </g>
    <g
       id="g218"
       transform="translate(922.71997,232)">
      <path
         d="m 0,0 c 0,-0.16 0.32,-0.48 0.48,-0.48 h 9.6 c 0.32,0 0.64,0.32 0.64,0.48 v 14.4 c 0,0.32 -0.32,0.64 -0.64,0.64 H 0.48 C 0.32,15.04 0,14.72 0,14.4 Z M 1.12,14.4 0.48,13.92 h 9.6 L 9.6,14.4 V 0 l 0.48,0.64 H 0.48 L 1.12,0 Z"
         style="fill:#000000;fill-opacity:1;fill-rule:nonzero;stroke:none"
         id="path220" />
    </g>
    <g
       id="g222">
      <path
         d="m 652.79999,232 h 9.60003 v 14.39999 h -9.60003 z"
         style="fill:#000000;fill-opacity:1;fill-rule:nonzero;stroke:none"
         id="path224" />
    </g>
    <g
       id="g226"
       transform="translate(652.32001,232)">
      <path
         d="m 0,0 c 0,-0.16 0.32,-0.48 0.48,-0.48 h 9.6 c 0.32,0 0.64,0.32 0.64,0.48 v 14.4 c 0,0.32 -0.32,0.64 -0.64,0.64 H 0.48 C 0.32,15.04 0,14.72 0,14.4 Z M 1.12,14.4 0.48,13.92 h 9.6 L 9.6,14.4 V 0 l 0.48,0.64 H 0.48 L 1.12,0 Z"
         style="fill:#000000;fill-opacity:1;fill-rule:nonzero;stroke:none"
         id="path228" />
    </g>
    <g
       id="g230">
      <path
         d="m 755.20001,232 h 9.59998 v 14.39999 h -9.59998 z"
         style="fill:#000000;fill-opacity:1;fill-rule:nonzero;stroke:none"
         id="path232" />
    </g>
    <g
       id="g234"
       transform="translate(754.71997,232)">
      <path
         d="m 0,0 c 0,-0.16 0.32,-0.48 0.48,-0.48 h 9.6 c 0.32,0 0.64,0.32 0.64,0.48 v 14.4 c 0,0.32 -0.32,0.64 -0.64,0.64 H 0.48 C 0.32,15.04 0,14.72 0,14.4 Z M 1.12,14.4 0.48,13.92 h 9.6 L 9.6,14.4 V 0 l 0.48,0.64 H 0.48 L 1.12,0 Z"
         style="fill:#000000;fill-opacity:1;fill-rule:nonzero;stroke:none"
         id="path236" />
    </g>
    <g
       id="g238">
      <path
         d="m 827.20001,232 h 9.59998 v 14.39999 h -9.59998 z"
         style="fill:#000000;fill-opacity:1;fill-rule:nonzero;stroke:none"
         id="path240" />
    </g>
    <g
       id="g242"
       transform="translate(826.71997,232)">
      <path
         d="m 0,0 c 0,-0.16 0.32,-0.48 0.48,-0.48 h 9.6 c 0.32,0 0.64,0.32 0.64,0.48 v 14.4 c 0,0.32 -0.32,0.64 -0.64,0.64 H 0.48 C 0.32,15.04 0,14.72 0,14.4 Z M 1.12,14.4 0.48,13.92 h 9.6 L 9.6,14.4 V 0 l 0.48,0.64 H 0.48 L 1.12,0 Z"
         style="fill:#000000;fill-opacity:1;fill-rule:nonzero;stroke:none"
         id="path244" />
    </g>
    <g
       id="g246">
      <path
         d="m 572.79999,345.60001 h 76.79999 V 360 h -76.79999 z"
         style="fill:#ff9900;fill-opacity:1;fill-rule:nonzero;stroke:none"
         id="path248" />
    </g>
    <g
       id="g250"
       transform="translate(572.32001,345.60001)">
      <path
         d="m 0,0 c 0,-0.16 0.32,-0.48 0.48,-0.48 h 76.799999 c 0.319999,0 0.639999,0.32 0.639999,0.48 v 14.4 c 0,0.32 -0.32,0.64 -0.639999,0.64 L 0.48,15.04 C 0.32,15.04 0,14.72 0,14.4 Z M 1.12,14.4 0.48,13.92 H 77.279999 L 76.800003,14.4 V 0 l 0.479996,0.64 H 0.48 L 1.12,0 Z"
         style="fill:#000000;fill-opacity:1;fill-rule:nonzero;stroke:none"
         id="path252" />
    </g>
    <g
       id="g254">
      <path
         d="m 620.79999,345.60001 h 9.60003 V 360 h -9.60003 z"
         style="fill:#ffff00;fill-opacity:1;fill-rule:nonzero;stroke:none"
         id="path256" />
    </g>
    <g
       id="g258"
       transform="translate(620.32001,345.60001)">
      <path
         d="m 0,0 c 0,-0.16 0.32,-0.48 0.48,-0.48 h 9.6 c 0.32,0 0.64,0.32 0.64,0.48 v 14.4 c 0,0.32 -0.32,0.64 -0.64,0.64 H 0.48 C 0.32,15.04 0,14.72 0,14.4 Z M 1.12,14.4 0.48,13.92 h 9.6 L 9.6,14.4 V 0 l 0.48,0.64 H 0.48 L 1.12,0 Z"
         style="fill:#000000;fill-opacity:1;fill-rule:nonzero;stroke:none"
         id="path260" />
    </g>
    <g
       id="g262">
      <path
         d="M 844.79999,345.60001 H 960 V 360 H 844.79999 Z"
         style="fill:#ff9900;fill-opacity:1;fill-rule:nonzero;stroke:none"
         id="path264" />
    </g>
    <g
       id="g266"
       transform="translate(844.32001,345.60001)">
      <path
         d="m 0,0 c 0,-0.16 0.32,-0.48 0.48,-0.48 h 115.2 c 0.32,0 0.64,0.32 0.64,0.48 v 14.4 c 0,0.32 -0.32,0.64 -0.64,0.64 H 0.48 C 0.32,15.04 0,14.72 0,14.4 Z M 1.12,14.4 0.48,13.92 h 115.2 L 115.2,14.4 V 0 l 0.48,0.64 H 0.48 L 1.12,0 Z"
         style="fill:#000000;fill-opacity:1;fill-rule:nonzero;stroke:none"
         id="path268" />
    </g>
    <g
       id="g270">
      <path
         d="m 923.20001,345.60001 h 9.59998 V 360 h -9.59998 z"
         style="fill:#ffff00;fill-opacity:1;fill-rule:nonzero;stroke:none"
         id="path272" />
    </g>
    <g
       id="g274"
       transform="translate(922.71997,345.60001)">
      <path
         d="m 0,0 c 0,-0.16 0.32,-0.48 0.48,-0.48 h 9.6 c 0.32,0 0.64,0.32 0.64,0.48 v 14.4 c 0,0.32 -0.32,0.64 -0.64,0.64 H 0.48 C 0.32,15.04 0,14.72 0,14.4 Z M 1.12,14.4 0.48,13.92 h 9.6 L 9.6,14.4 V 0 l 0.48,0.64 H 0.48 L 1.12,0 Z"
         style="fill:#000000;fill-opacity:1;fill-rule:nonzero;stroke:none"
         id="path276" />
    </g>
    <g
       id="g278">
      <path
         d="m 772.79999,345.60001 h 57.60003 V 360 h -57.60003 z"
         style="fill:#ff9900;fill-opacity:1;fill-rule:nonzero;stroke:none"
         id="path280" />
    </g>
    <g
       id="g282"
       transform="translate(772.32001,345.60001)">
      <path
         d="m 0,0 c 0,-0.16 0.32,-0.48 0.48,-0.48 h 57.600002 c 0.32,0 0.639999,0.32 0.639999,0.48 v 14.4 c 0,0.32 -0.319999,0.64 -0.639999,0.64 L 0.48,15.04 C 0.32,15.04 0,14.72 0,14.4 Z M 1.12,14.4 0.48,13.92 H 58.080002 L 57.599998,14.4 V 0 l 0.480004,0.64 H 0.48 L 1.12,0 Z"
         style="fill:#000000;fill-opacity:1;fill-rule:nonzero;stroke:none"
         id="path284" />
    </g>
    <g
       id="g286">
      <path
         d="m 779.20001,345.60001 h 9.59998 V 360 h -9.59998 z"
         style="fill:#ffff00;fill-opacity:1;fill-rule:nonzero;stroke:none"
         id="path288" />
    </g>
    <g
       id="g290"
       transform="translate(778.71997,345.60001)">
      <path
         d="m 0,0 c 0,-0.16 0.32,-0.48 0.48,-0.48 h 9.6 c 0.32,0 0.64,0.32 0.64,0.48 v 14.4 c 0,0.32 -0.32,0.64 -0.64,0.64 H 0.48 C 0.32,15.04 0,14.72 0,14.4 Z M 1.12,14.4 0.48,13.92 h 9.6 L 9.6,14.4 V 0 l 0.48,0.64 H 0.48 L 1.12,0 Z"
         style="fill:#000000;fill-opacity:1;fill-rule:nonzero;stroke:none"
         id="path292" />
    </g>
    <g
       id="g294">
      <path
         d="m 664,345.60001 h 96 V 360 h -96 z"
         style="fill:#ff9900;fill-opacity:1;fill-rule:nonzero;stroke:none"
         id="path296" />
    </g>
    <g
       id="g298"
       transform="translate(663.52002,345.60001)">
      <path
         d="m 0,0 c 0,-0.16 0.32,-0.48 0.48,-0.48 h 96.000003 c 0.32,0 0.64,0.32 0.64,0.48 v 14.4 c 0,0.32 -0.32,0.64 -0.64,0.64 L 0.48,15.04 C 0.32,15.04 0,14.72 0,14.4 Z M 1.12,14.4 0.48,13.92 H 96.480003 L 96,14.4 V 0 l 0.480003,0.64 H 0.48 L 1.12,0 Z"
         style="fill:#000000;fill-opacity:1;fill-rule:nonzero;stroke:none"
         id="path300" />
    </g>
    <g
       id="g302">
      <path
         d="m 691.20001,345.60001 h 9.59998 V 360 h -9.59998 z"
         style="fill:#ffff00;fill-opacity:1;fill-rule:nonzero;stroke:none"
         id="path304" />
    </g>
    <g
       id="g306"
       transform="translate(690.71997,345.60001)">
      <path
         d="m 0,0 c 0,-0.16 0.32,-0.48 0.48,-0.48 h 9.6 c 0.32,0 0.64,0.32 0.64,0.48 v 14.4 c 0,0.32 -0.32,0.64 -0.64,0.64 H 0.48 C 0.32,15.04 0,14.72 0,14.4 Z M 1.12,14.4 0.48,13.92 h 9.6 L 9.6,14.4 V 0 l 0.48,0.64 H 0.48 L 1.12,0 Z"
         style="fill:#000000;fill-opacity:1;fill-rule:nonzero;stroke:none"
         id="path308" />
    </g>
    <g
       id="g310">
      <path
         d="M 841.59998,441.60001 H 956.79999 V 456 H 841.59998 Z"
         style="fill:#ff9900;fill-opacity:1;fill-rule:nonzero;stroke:none"
         id="path312" />
    </g>
    <g
       id="g314"
       transform="translate(841.12,441.60001)">
      <path
         d="m 0,0 c 0,-0.16 0.32,-0.48 0.48,-0.48 h 115.2 c 0.32,0 0.64,0.32 0.64,0.48 v 14.4 c 0,0.32 -0.32,0.64 -0.64,0.64 H 0.48 C 0.32,15.04 0,14.72 0,14.4 Z M 1.12,14.4 0.48,13.92 h 115.2 L 115.2,14.4 V 0 l 0.48,0.64 H 0.48 L 1.12,0 Z"
         style="fill:#000000;fill-opacity:1;fill-rule:nonzero;stroke:none"
         id="path316" />
    </g>
    <g
       id="g318">
      <path
         d="m 920,441.60001 h 9.59998 V 456 H 920 Z"
         style="fill:#ffff00;fill-opacity:1;fill-rule:nonzero;stroke:none"
         id="path320" />
    </g>
    <g
       id="g322"
       transform="translate(919.52002,441.60001)">
      <path
         d="m 0,0 c 0,-0.16 0.32,-0.48 0.48,-0.48 h 9.6 c 0.32,0 0.64,0.32 0.64,0.48 v 14.4 c 0,0.32 -0.32,0.64 -0.64,0.64 H 0.48 C 0.32,15.04 0,14.72 0,14.4 Z M 1.12,14.4 0.48,13.92 h 9.6 L 9.6,14.4 V 0 l 0.48,0.64 H 0.48 L 1.12,0 Z"
         style="fill:#000000;fill-opacity:1;fill-rule:nonzero;stroke:none"
         id="path324" />
    </g>
    <g
       id="g326">
      <path
         d="m 660.79999,441.60001 h 96 V 456 h -96 z"
         style="fill:#ff9900;fill-opacity:1;fill-rule:nonzero;stroke:none"
         id="path328" />
    </g>
    <g
       id="g330"
       transform="translate(660.32001,441.60001)">
      <path
         d="m 0,0 c 0,-0.16 0.32,-0.48 0.48,-0.48 h 96.000003 c 0.32,0 0.64,0.32 0.64,0.48 v 14.4 c 0,0.32 -0.32,0.64 -0.64,0.64 L 0.48,15.04 C 0.32,15.04 0,14.72 0,14.4 Z M 1.12,14.4 0.48,13.92 H 96.480003 L 96,14.4 V 0 l 0.480003,0.64 H 0.48 L 1.12,0 Z"
         style="fill:#000000;fill-opacity:1;fill-rule:nonzero;stroke:none"
         id="path332" />
    </g>
    <g
       id="g334">
      <path
         d="m 688,441.60001 h 9.59998 V 456 H 688 Z"
         style="fill:#ffff00;fill-opacity:1;fill-rule:nonzero;stroke:none"
         id="path336" />
    </g>
    <g
       id="g338"
       transform="translate(687.52002,441.60001)">
      <path
         d="m 0,0 c 0,-0.16 0.32,-0.48 0.48,-0.48 h 9.6 c 0.32,0 0.64,0.32 0.64,0.48 v 14.4 c 0,0.32 -0.32,0.64 -0.64,0.64 H 0.48 C 0.32,15.04 0,14.72 0,14.4 Z M 1.12,14.4 0.48,13.92 h 9.6 L 9.6,14.4 V 0 l 0.48,0.64 H 0.48 L 1.12,0 Z"
         style="fill:#000000;fill-opacity:1;fill-rule:nonzero;stroke:none"
         id="path340" />
    </g>
    <g
       id="g342">
      <path
         d="m 400,561.59998 h 96 V 576 h -96 z"
         style="fill:#00b8ff;fill-opacity:1;fill-rule:nonzero;stroke:none"
         id="path344" />
    </g>
    <g
       id="g346"
       transform="translate(399.51999,561.59998)">
      <path
         d="m 0,0 c 0,-0.16 0.32,-0.48 0.48,-0.48 h 96.000003 c 0.32,0 0.64,0.32 0.64,0.48 v 14.4 c 0,0.32 -0.32,0.64 -0.64,0.64 L 0.48,15.04 C 0.32,15.04 0,14.72 0,14.4 Z M 1.12,14.4 0.48,13.92 H 96.480003 L 96,14.4 V 0 l 0.480003,0.64 H 0.48 L 1.12,0 Z"
         style="fill:#000000;fill-opacity:1;fill-rule:nonzero;stroke:none"
         id="path348" />
    </g>
    <g
       id="g350">
      <path
         d="m 427.20001,561.59998 h 9.59998 V 576 h -9.59998 z"
         style="fill:#ffff00;fill-opacity:1;fill-rule:nonzero;stroke:none"
         id="path352" />
    </g>
    <g
       id="g354"
       transform="translate(426.72,561.59998)">
      <path
         d="m 0,0 c 0,-0.16 0.32,-0.48 0.48,-0.48 h 9.6 c 0.32,0 0.64,0.32 0.64,0.48 v 14.4 c 0,0.32 -0.32,0.64 -0.64,0.64 H 0.48 C 0.32,15.04 0,14.72 0,14.4 Z M 1.12,14.4 0.48,13.92 h 9.6 L 9.6,14.4 V 0 l 0.48,0.64 H 0.48 L 1.12,0 Z"
         style="fill:#000000;fill-opacity:1;fill-rule:nonzero;stroke:none"
         id="path356" />
    </g>
    <g
       id="g358">
      <path
         d="m 400,601.59998 h 96 V 616 h -96 z"
         style="fill:#ff9900;fill-opacity:1;fill-rule:nonzero;stroke:none"
         id="path360" />
    </g>
    <g
       id="g362"
       transform="translate(399.51999,601.59998)">
      <path
         d="m 0,0 c 0,-0.16 0.32,-0.48 0.48,-0.48 h 96.000003 c 0.32,0 0.64,0.32 0.64,0.48 v 14.4 c 0,0.32 -0.32,0.64 -0.64,0.64 L 0.48,15.04 C 0.32,15.04 0,14.72 0,14.4 Z M 1.12,14.4 0.48,13.92 H 96.480003 L 96,14.4 V 0 l 0.480003,0.64 H 0.48 L 1.12,0 Z"
         style="fill:#000000;fill-opacity:1;fill-rule:nonzero;stroke:none"
         id="path364" />
    </g>
    <g
       id="g366">
      <path
         d="m 427.20001,601.59998 h 9.59998 V 616 h -9.59998 z"
         style="fill:#ffff00;fill-opacity:1;fill-rule:nonzero;stroke:none"
         id="path368" />
    </g>
    <g
       id="g370"
       transform="translate(426.72,601.59998)">
      <path
         d="m 0,0 c 0,-0.16 0.32,-0.48 0.48,-0.48 h 9.6 c 0.32,0 0.64,0.32 0.64,0.48 v 14.4 c 0,0.32 -0.32,0.64 -0.64,0.64 H 0.48 C 0.32,15.04 0,14.72 0,14.4 Z M 1.12,14.4 0.48,13.92 h 9.6 L 9.6,14.4 V 0 l 0.48,0.64 H 0.48 L 1.12,0 Z"
         style="fill:#000000;fill-opacity:1;fill-rule:nonzero;stroke:none"
         id="path372" />
    </g>
    <g
       id="g374">
      <path
         d="m 544,600 h 115.20001 v 14.40002 H 544 Z"
         style="fill:#ff9900;fill-opacity:1;fill-rule:nonzero;stroke:none"
         id="path376" />
    </g>
    <g
       id="g378"
       transform="translate(543.52002,600)">
      <path
         d="m 0,0 c 0,-0.16 0.32,-0.48 0.48,-0.48 h 115.2 c 0.32,0 0.64,0.32 0.64,0.48 v 14.4 c 0,0.32 -0.32,0.64 -0.64,0.64 H 0.48 C 0.32,15.04 0,14.72 0,14.4 Z M 1.12,14.4 0.48,13.92 h 115.2 L 115.2,14.4 V 0 l 0.48,0.64 H 0.48 L 1.12,0 Z"
         style="fill:#000000;fill-opacity:1;fill-rule:nonzero;stroke:none"
         id="path380" />
    </g>
    <g
       id="g382">
      <path
         d="M 622.40002,600 H 632 v 14.40002 h -9.59998 z"
         style="fill:#ffff00;fill-opacity:1;fill-rule:nonzero;stroke:none"
         id="path384" />
    </g>
    <g
       id="g386"
       transform="translate(621.91998,600)">
      <path
         d="m 0,0 c 0,-0.16 0.32,-0.48 0.48,-0.48 h 9.6 c 0.32,0 0.64,0.32 0.64,0.48 v 14.4 c 0,0.32 -0.32,0.64 -0.64,0.64 H 0.48 C 0.32,15.04 0,14.72 0,14.4 Z M 1.12,14.4 0.48,13.92 h 9.6 L 9.6,14.4 V 0 l 0.48,0.64 H 0.48 L 1.12,0 Z"
         style="fill:#000000;fill-opacity:1;fill-rule:nonzero;stroke:none"
         id="path388" />
    </g>
    <g
       id="g390">
      <path
         d="M 544,561.59998 H 659.20001 V 576 H 544 Z"
         style="fill:#00b8ff;fill-opacity:1;fill-rule:nonzero;stroke:none"
         id="path392" />
    </g>
    <g
       id="g394"
       transform="translate(543.52002,561.59998)">
      <path
         d="m 0,0 c 0,-0.16 0.32,-0.48 0.48,-0.48 h 115.2 c 0.32,0 0.64,0.32 0.64,0.48 v 14.4 c 0,0.32 -0.32,0.64 -0.64,0.64 H 0.48 C 0.32,15.04 0,14.72 0,14.4 Z M 1.12,14.4 0.48,13.92 h 115.2 L 115.2,14.4 V 0 l 0.48,0.64 H 0.48 L 1.12,0 Z"
         style="fill:#000000;fill-opacity:1;fill-rule:nonzero;stroke:none"
         id="path396" />
    </g>
    <g
       id="g398">
      <path
         d="M 622.40002,561.59998 H 632 V 576 h -9.59998 z"
         style="fill:#ffff00;fill-opacity:1;fill-rule:nonzero;stroke:none"
         id="path400" />
    </g>
    <g
       id="g402"
       transform="translate(621.91998,561.59998)">
      <path
         d="m 0,0 c 0,-0.16 0.32,-0.48 0.48,-0.48 h 9.6 c 0.32,0 0.64,0.32 0.64,0.48 v 14.4 c 0,0.32 -0.32,0.64 -0.64,0.64 H 0.48 C 0.32,15.04 0,14.72 0,14.4 Z M 1.12,14.4 0.48,13.92 h 9.6 L 9.6,14.4 V 0 l 0.48,0.64 H 0.48 L 1.12,0 Z"
         style="fill:#000000;fill-opacity:1;fill-rule:nonzero;stroke:none"
         id="path404" />
    </g>
    <g
       id="g406">
      <path
         d="m 232,296 h 4.8 v -24 h 9.59999 v 24 H 251.2 l -9.59999,9.60001 z"
         style="fill:#7f7f7f;fill-opacity:1;fill-rule:evenodd;stroke:none"
         id="path408" />
    </g>
    <g
       id="g410"
       transform="translate(230.88,295.51999)">
      <path
         d="M 0,0 H 5.92 L 5.44,0.48 V -24 H 16.16 V 0.48 L 15.52,0 H 21.6 L 10.72,10.88 Z m 11.2,9.76 h -0.8 l 9.6,-9.6 0.32,0.96 h -5.28 v -24.64 l 0.48,0.640001 H 5.92 L 6.56,-23.52 V 1.12 H 1.12 L 1.6,0.16 Z"
         style="fill:#000000;fill-opacity:1;fill-rule:nonzero;stroke:none"
         id="path412" />
    </g>
    <g
       id="g414">
      <path
         d="m 132.8,296 h 4.80001 V 272 H 147.2 v 24 h 4.8 l -9.60001,9.60001 z"
         style="fill:#7f7f7f;fill-opacity:1;fill-rule:evenodd;stroke:none"
         id="path416" />
    </g>
    <g
       id="g418"
       transform="translate(131.67999,295.51999)">
      <path
         d="M 0,0 H 5.92 L 5.44,0.48 V -24 H 16.16 V 0.48 L 15.52,0 H 21.6 L 10.72,10.88 Z m 11.2,9.76 h -0.8 l 9.6,-9.6 0.32,0.96 h -5.28 v -24.64 l 0.48,0.640001 H 5.92 L 6.56,-23.52 V 1.12 H 1.12 L 1.6,0.16 Z"
         style="fill:#000000;fill-opacity:1;fill-rule:nonzero;stroke:none"
         id="path420" />
    </g>
    <g
       id="g422">
      <path
         d="m 324.79999,296 h 4.80002 v -24 h 9.6 v 24 H 344 l -9.60001,9.60001 z"
         style="fill:#7f7f7f;fill-opacity:1;fill-rule:evenodd;stroke:none"
         id="path424" />
    </g>
    <g
       id="g426"
       transform="translate(323.67999,295.51999)">
      <path
         d="M 0,0 H 5.92 L 5.44,0.48 V -24 H 16.16 V 0.48 L 15.52,0 H 21.6 L 10.72,10.88 Z m 11.2,9.76 h -0.8 l 9.6,-9.6 0.32,0.96 h -5.28 v -24.64 l 0.48,0.640001 H 5.92 L 6.56,-23.52 V 1.12 H 1.12 L 1.6,0.16 Z"
         style="fill:#000000;fill-opacity:1;fill-rule:nonzero;stroke:none"
         id="path428" />
    </g>
    <g
       id="g430">
      <path
         d="m 428.79999,296 h 4.80002 v -24 h 9.6 v 24 H 448 l -9.60001,9.60001 z"
         style="fill:#7f7f7f;fill-opacity:1;fill-rule:evenodd;stroke:none"
         id="path432" />
    </g>
    <g
       id="g434"
       transform="translate(427.67999,295.51999)">
      <path
         d="M 0,0 H 5.92 L 5.44,0.48 V -24 H 16.16 V 0.48 L 15.52,0 H 21.6 L 10.72,10.88 Z m 11.2,9.76 h -0.8 l 9.6,-9.6 0.32,0.96 h -5.28 v -24.64 l 0.48,0.640001 H 5.92 L 6.56,-23.52 V 1.12 H 1.12 L 1.6,0.16 Z"
         style="fill:#000000;fill-opacity:1;fill-rule:nonzero;stroke:none"
         id="path436" />
    </g>
    <g
       id="g438">
      <path
         d="m 232,406.39999 h 4.8 v -24 h 9.59999 v 24 H 251.2 L 241.60001,416 Z"
         style="fill:#7f7f7f;fill-opacity:1;fill-rule:evenodd;stroke:none"
         id="path440" />
    </g>
    <g
       id="g442"
       transform="translate(230.88,405.92001)">
      <path
         d="M 0,0 H 5.92 L 5.44,0.48 V -24 H 16.16 V 0.48 L 15.52,0 H 21.6 L 10.72,10.88 Z m 11.2,9.76 h -0.8 l 9.6,-9.6 0.32,0.96 h -5.28 v -24.64 l 0.48,0.640001 H 5.92 L 6.56,-23.52 V 1.12 H 1.12 L 1.6,0.16 Z"
         style="fill:#000000;fill-opacity:1;fill-rule:nonzero;stroke:none"
         id="path444" />
    </g>
    <g
       id="g446">
      <path
         d="m 428.79999,406.39999 h 4.80002 v -24 h 9.6 v 24 H 448 L 438.39999,416 Z"
         style="fill:#7f7f7f;fill-opacity:1;fill-rule:evenodd;stroke:none"
         id="path448" />
    </g>
    <g
       id="g450"
       transform="translate(427.67999,405.92001)">
      <path
         d="M 0,0 H 5.92 L 5.44,0.48 V -24 H 16.16 V 0.48 L 15.52,0 H 21.6 L 10.72,10.88 Z m 11.2,9.76 h -0.8 l 9.6,-9.6 0.32,0.96 h -5.28 v -24.64 l 0.48,0.640001 H 5.92 L 6.56,-23.52 V 1.12 H 1.12 L 1.6,0.16 Z"
         style="fill:#000000;fill-opacity:1;fill-rule:nonzero;stroke:none"
         id="path452" />
    </g>
    <g
       id="g454">
      <path
         d="M 699.20001,296 H 704 v -24 h 9.59998 v 24 h 4.80004 l -9.60003,9.60001 z"
         style="fill:#7f7f7f;fill-opacity:1;fill-rule:evenodd;stroke:none"
         id="path456" />
    </g>
    <g
       id="g458"
       transform="translate(698.08002,295.51999)">
      <path
         d="M 0,0 H 5.92 L 5.44,0.48 V -24 H 16.16 V 0.48 L 15.52,0 H 21.6 L 10.72,10.88 Z m 11.2,9.76 h -0.8 l 9.6,-9.6 0.32,0.96 h -5.28 v -24.64 l 0.48,0.640001 H 5.92 L 6.56,-23.52 V 1.12 H 1.12 L 1.6,0.16 Z"
         style="fill:#000000;fill-opacity:1;fill-rule:nonzero;stroke:none"
         id="path460" />
    </g>
    <g
       id="g462">
      <path
         d="m 600,296 h 4.79999 v -24 h 9.60003 v 24 h 4.79999 l -9.60003,9.60001 z"
         style="fill:#7f7f7f;fill-opacity:1;fill-rule:evenodd;stroke:none"
         id="path464" />
    </g>
    <g
       id="g466"
       transform="translate(598.88,295.51999)">
      <path
         d="M 0,0 H 5.92 L 5.44,0.48 V -24 H 16.16 V 0.48 L 15.52,0 H 21.6 L 10.72,10.88 Z m 11.2,9.76 h -0.8 l 9.6,-9.6 0.32,0.96 h -5.28 v -24.64 l 0.48,0.640001 H 5.92 L 6.56,-23.52 V 1.12 H 1.12 L 1.6,0.16 Z"
         style="fill:#000000;fill-opacity:1;fill-rule:nonzero;stroke:none"
         id="path468" />
    </g>
    <g
       id="g470">
      <path
         d="m 792,296 h 4.79999 v -24 h 9.60003 v 24 h 4.79999 l -9.60003,9.60001 z"
         style="fill:#7f7f7f;fill-opacity:1;fill-rule:evenodd;stroke:none"
         id="path472" />
    </g>
    <g
       id="g474"
       transform="translate(790.88,295.51999)">
      <path
         d="M 0,0 H 5.92 L 5.44,0.48 V -24 H 16.16 V 0.48 L 15.52,0 H 21.6 L 10.72,10.88 Z m 11.2,9.76 h -0.8 l 9.6,-9.6 0.32,0.96 h -5.28 v -24.64 l 0.48,0.640001 H 5.92 L 6.56,-23.52 V 1.12 H 1.12 L 1.6,0.16 Z"
         style="fill:#000000;fill-opacity:1;fill-rule:nonzero;stroke:none"
         id="path476" />
    </g>
    <g
       id="g478">
      <path
         d="m 896,296 h 4.79999 v -24 h 9.60003 v 24 h 4.79999 l -9.60003,9.60001 z"
         style="fill:#7f7f7f;fill-opacity:1;fill-rule:evenodd;stroke:none"
         id="path480" />
    </g>
    <g
       id="g482"
       transform="translate(894.88,295.51999)">
      <path
         d="M 0,0 H 5.92 L 5.44,0.48 V -24 H 16.16 V 0.48 L 15.52,0 H 21.6 L 10.72,10.88 Z m 11.2,9.76 h -0.8 l 9.6,-9.6 0.32,0.96 h -5.28 v -24.64 l 0.48,0.640001 H 5.92 L 6.56,-23.52 V 1.12 H 1.12 L 1.6,0.16 Z"
         style="fill:#000000;fill-opacity:1;fill-rule:nonzero;stroke:none"
         id="path484" />
    </g>
    <g
       id="g486">
      <path
         d="M 699.20001,406.39999 H 704 v -24 h 9.59998 v 24 h 4.80004 L 708.79999,416 Z"
         style="fill:#7f7f7f;fill-opacity:1;fill-rule:evenodd;stroke:none"
         id="path488" />
    </g>
    <g
       id="g490"
       transform="translate(698.08002,405.92001)">
      <path
         d="M 0,0 H 5.92 L 5.44,0.48 V -24 H 16.16 V 0.48 L 15.52,0 H 21.6 L 10.72,10.88 Z m 11.2,9.76 h -0.8 l 9.6,-9.6 0.32,0.96 h -5.28 v -24.64 l 0.48,0.640001 H 5.92 L 6.56,-23.52 V 1.12 H 1.12 L 1.6,0.16 Z"
         style="fill:#000000;fill-opacity:1;fill-rule:nonzero;stroke:none"
         id="path492" />
    </g>
    <g
       id="g494">
      <path
         d="m 896,406.39999 h 4.79999 v -24 h 9.60003 v 24 h 4.79999 L 905.59998,416 Z"
         style="fill:#7f7f7f;fill-opacity:1;fill-rule:evenodd;stroke:none"
         id="path496" />
    </g>
    <g
       id="g498"
       transform="translate(894.88,405.92001)">
      <path
         d="M 0,0 H 5.92 L 5.44,0.48 V -24 H 16.16 V 0.48 L 15.52,0 H 21.6 L 10.72,10.88 Z m 11.2,9.76 h -0.8 l 9.6,-9.6 0.32,0.96 h -5.28 v -24.64 l 0.48,0.640001 H 5.92 L 6.56,-23.52 V 1.12 H 1.12 L 1.6,0.16 Z"
         style="fill:#000000;fill-opacity:1;fill-rule:nonzero;stroke:none"
         id="path500" />
    </g>
    <g
       id="g502"
       transform="translate(973.59998,476.95999)">
      <path
         d="m 0,0 v 3.36 3.36 l -0.16,3.36 -0.16,3.04 -0.32,3.04 -0.32,2.719999 L -1.28,21.6 -1.6,24 -1.92,26.24 -2.24,27.200001 -2.4,28.32 -2.72,29.120001 -2.88,30.08 -3.2,30.879999 -3.52,31.52 l -0.16,0.8 -0.32,0.639999 -0.48,0.48 -0.32,0.640003 c 0,0 -0.16,0.16 -0.16,0.16 l -0.32,0.319999 -0.48,0.32 c -0.16,0.16 -0.16,0.16 -0.32,0.32 l -0.32,0.16 c -0.16,0 -0.32,0.159999 -0.64,0.159999 H -7.2 -438.07999 v 0 l 0.47998,-0.159999 -0.32,0.159999 0.48001,-0.319999 -0.32001,0.319999 v 0.16 l 0.16,-0.319999 -0.32,0.319999 -0.15998,0.32 -0.16,0.48 -0.16,0.479999 -0.32001,0.639999 -0.16,0.640004 -0.16001,0.799999 -0.31998,0.799999 -0.16,0.799999 -0.16,0.959999 -0.48001,2.080002 -0.32001,2.400002 -0.31998,2.559997 -0.32001,2.720002 -0.16,2.880001 -0.16,3.039997 -0.16001,3.200001 -0.16,3.36 v 3.359997 c 0,1.120003 -0.79999,1.920006 -1.91998,1.920006 -1.12,0 -2.08002,-0.800003 -2.08002,-1.920006 V 63.68 60.48 l -0.16,-3.200001 -0.31998,-3.039997 -0.16,-2.880001 L -446.72,48.48 l -0.32001,-2.399998 -0.31998,-2.400002 -0.32,-2.080002 L -448,40.639999 -448.16,39.68 l -0.16001,-0.799999 -0.32,-0.639999 -0.15998,-0.800003 -0.16,-0.64 L -449.28,36.32 -449.44,36 l -0.16001,-0.32 -0.16,-0.319999 0.16,0.319999 -0.32,-0.319999 -0.15998,-0.16 0.47998,0.319999 -0.32,-0.159999 L -449.28,35.52 H -449.60001 -880 h -0.47998 c -0.16003,0 -0.32001,-0.159999 -0.64002,-0.159999 l -0.16003,-0.16 c -0.15997,-0.16 -0.31995,-0.16 -0.47998,-0.32 l -0.32001,-0.16 -0.47998,-0.479999 c 0,0 0,-0.16 -0.15997,-0.16 L -882.88,33.599998 -883.35998,33.119999 -883.67999,32.32 -884,31.68 -884.15997,30.879999 -884.47998,30.08 -884.79999,29.280001 -884.96002,28.32 -885.28003,27.360001 -885.44,26.24 -885.91998,24 -886.23999,21.6 -886.56,19.040001 -886.88,16.16 l -0.15998,-3.04 -0.16003,-3.04 -0.15997,-3.36 -0.16004,-3.36 V 0 l 4,-0.16 v 3.52 l 0.16004,3.2 0.15997,3.2 0.16003,3.04 0.15998,2.88 0.32,2.72 0.32001,2.559999 0.32001,2.400002 0.32,2.08 0.31995,0.959999 0.16003,0.960001 0.15998,0.799999 0.32001,0.639999 0.16003,0.800001 0.15997,0.48 0.32001,0.479999 0.15997,0.480002 0.16004,0.32 0.32001,0.319999 -0.32001,-0.16 h 0.15997 l 0.32001,0.32 -0.47998,-0.32 0.32001,0.16 L -880,31.52 v 0 h 430.88 0.32001 c 0.15998,0.16 0.47998,0.16 0.63999,0.32 h 0.16 c 0.16,0.16 0.32001,0.16 0.48001,0.32 l 0.47998,0.32 0.32001,0.319999 c 0,0.16 0.16,0.16 0.16,0.32 l 0.32001,0.479999 0.31998,0.640004 0.32,0.639999 0.32001,0.639999 0.32001,0.64 0.16,0.799999 0.31998,0.959999 0.16,0.960003 L -444,39.84 l 0.16,0.959999 0.48001,2.240002 0.31998,2.399998 0.32001,2.720001 0.32001,2.880001 0.16,2.879997 0.31998,3.200001 0.16,3.200001 v 3.36 3.519997 h -4 V 63.68 l 0.16,-3.36 0.16001,-3.360001 0.16,-3.040001 0.16,-3.039997 0.32001,-2.720001 0.31998,-2.720001 0.48001,-2.399998 0.32001,-2.240002 0.32,-1.119999 0.15998,-0.959999 0.32001,-0.960003 0.16,-0.799999 0.32001,-0.799999 0.32,-0.799999 0.15998,-0.64 0.48001,-0.639999 0.32,-0.640003 0.16001,-0.32 c 0.16,-0.16 0.16,-0.16 0.31998,-0.32 L -440.16,32.32 -440,32.16 c 0.16,-0.16 0.32001,-0.16 0.48001,-0.32 h 0.31998 c 0.16,-0.16 0.32001,-0.16 0.48001,-0.32 h 0.64001 H -7.84 -7.52 l -0.64,0.16 0.32,-0.16 -0.32,0.32 V 31.68 L -7.84,31.52 -8,31.68 -7.84,31.52 -7.68,31.200001 -7.52,30.719999 -7.2,30.24 -7.04,29.6 -6.72,28.959999 -6.56,28.16 -6.4,27.360001 -6.08,26.4 l 0.16,-0.959999 0.32,-2.08 0.48,-2.24 L -4.8,18.559999 -4.64,15.84 -4.32,12.96 -4.16,9.76 -4,6.72 V 3.36 -0.16 Z"
         style="fill:#000000;fill-opacity:1;fill-rule:nonzero;stroke:none"
         id="path504" />
    </g>
    <g
       id="g506"
       transform="scale(0.073242)">
      <text
         xml:space="preserve"
         transform="translate(1420,3102.0801)"
         style="font-variant:normal;font-weight:normal;font-size:327.68px;font-family:F1;-inkscape-font-specification:F1;writing-mode:lr-tb;fill:#000000;fill-opacity:1;fill-rule:nonzero;stroke:none"
         id="text510"><tspan
           x="0 209.71519 376.832 553.77917 730.72638 996.14716 1078.0671 1212.416 1281.2288 1487.6671 1703.9359"
           y="0"
           sodipodi:role="line"
           id="tspan508">Genomic DNA</tspan></text>
    </g>
    <g
       id="g540"
       transform="scale(0.073242)">
      <text
         xml:space="preserve"
         transform="translate(1413.4399,4631.2002)"
         style="font-variant:normal;font-weight:normal;font-size:327.68px;font-family:F1;-inkscape-font-specification:F1;writing-mode:lr-tb;fill:#000000;fill-opacity:1;fill-rule:nonzero;stroke:none"
         id="text544"><tspan
           x="0 180.224 344.064 471.85919 586.54718 701.23517 783.15521 920.78076 1032.192 1114.1119 1291.0592 1464.7296 1533.5424 1739.9807 1821.9008 1972.6335 2139.7502 2264.2688 2378.9568 2460.8767 2637.824"
           y="0"
           sodipodi:role="line"
           id="tspan542">Restriction Digestion</tspan></text>
    </g>
    <g
       id="g546"
       transform="scale(0.073242)">
      <text
         xml:space="preserve"
         transform="translate(1420,5937.6001)"
         style="font-variant:normal;font-weight:normal;font-size:327.68px;font-family:F1;-inkscape-font-specification:F1;writing-mode:lr-tb;fill:#000000;fill-opacity:1;fill-rule:nonzero;stroke:none"
         id="text550"><tspan
           x="0 154.0096 235.9296 360.448 527.56476 596.37756 750.38721 917.50397 999.42395 1163.2639 1300.8895 1415.5775 1497.4976 1671.168"
           y="0"
           sodipodi:role="line"
           id="tspan548">Size Selection</tspan></text>
    </g>
    <g
       id="g883"
       transform="translate(652.61537,7.8403347)">
      <g
         id="g512"
         transform="scale(0.073242)">
        <text
           xml:space="preserve"
           transform="translate(2407.3601,8454.0801)"
           style="font-variant:normal;font-weight:normal;font-size:327.68px;font-family:F1;-inkscape-font-specification:F1;writing-mode:lr-tb;fill:#000000;fill-opacity:1;fill-rule:nonzero;stroke:none"
           id="text516"><tspan
             x="0 154.0096 370.27838 547.22559 619.31519 776.60156 855.24481 966.65601"
             y="0"
             sodipodi:role="line"
             id="tspan514">SNP Site</tspan></text>
      </g>
      <g
         id="g518"
         transform="scale(0.073242)">
        <text
           xml:space="preserve"
           transform="translate(2422.72,8891.04)"
           style="font-variant:normal;font-weight:normal;font-size:327.68px;font-family:F1;-inkscape-font-specification:F1;writing-mode:lr-tb;fill:#000000;fill-opacity:1;fill-rule:nonzero;stroke:none"
           id="text522"><tspan
             x="0 180.224 344.064 471.85919 586.54718 701.23517 783.15521 920.78076 1032.192 1114.1119 1291.0592 1464.7296 1533.5424 1687.552 1769.4719 1877.6063"
             y="0"
             sodipodi:role="line"
             id="tspan520">Restriction Site</tspan></text>
      </g>
      <g
         id="g524">
        <path
           d="M 158.39999,601.59998 H 168 V 616 h -9.60001 z"
           style="fill:#ffff00;fill-opacity:1;fill-rule:nonzero;stroke:none"
           id="path526" />
      </g>
      <g
         id="g528"
         transform="translate(157.92,601.59998)">
        <path
           d="m 0,0 c 0,-0.16 0.32,-0.48 0.48,-0.48 h 9.6 c 0.32,0 0.64,0.32 0.64,0.48 v 14.4 c 0,0.32 -0.32,0.64 -0.64,0.64 H 0.48 C 0.32,15.04 0,14.72 0,14.4 Z M 1.12,14.4 0.48,13.92 h 9.6 L 9.6,14.4 V 0 l 0.48,0.64 H 0.48 L 1.12,0 Z"
           style="fill:#000000;fill-opacity:1;fill-rule:nonzero;stroke:none"
           id="path530" />
      </g>
      <g
         id="g532">
        <path
           d="M 158.39999,630.71997 H 168 V 645.12 h -9.60001 z"
           style="fill:#000000;fill-opacity:1;fill-rule:nonzero;stroke:none"
           id="path534" />
      </g>
      <g
         id="g536"
         transform="translate(157.92,630.71997)">
        <path
           d="m 0,0 c 0,-0.16 0.32,-0.48 0.48,-0.48 h 9.6 c 0.32,0 0.64,0.32 0.64,0.48 v 14.4 c 0,0.32 -0.32,0.64 -0.64,0.64 H 0.48 C 0.32,15.04 0,14.72 0,14.4 Z M 1.12,14.4 0.48,13.92 h 9.6 L 9.6,14.4 V 0 l 0.48,0.64 H 0.48 L 1.12,0 Z"
           style="fill:#000000;fill-opacity:1;fill-rule:nonzero;stroke:none"
           id="path538" />
      </g>
    </g>
    <g
       id="g552"
       transform="scale(0.073242)">
      <text
         xml:space="preserve"
         transform="translate(1441.76,7466.7202)"
         style="font-variant:normal;font-weight:normal;font-size:327.68px;font-family:F1;-inkscape-font-specification:F1;writing-mode:lr-tb;fill:#000000;fill-opacity:1;fill-rule:nonzero;stroke:none"
         id="text556"><tspan
           x="0 150.7328 232.6528 311.29599 422.70718 586.54718 704.51196 783.15521 960.10236"
           y="0"
           sodipodi:role="line"
           id="tspan554">Filtering</tspan></text>
    </g>
    <g
       id="g558"
       transform="matrix(0.073242,0,0,0.073242,0,-18)">
      <text
         xml:space="preserve"
         transform="translate(3307.3601,2665.1201)"
         style="font-variant:normal;font-weight:normal;font-size:327.68px;font-family:F2;-inkscape-font-specification:F2;writing-mode:lr-tb;fill:#000000;fill-opacity:1;fill-rule:nonzero;stroke:none"
         id="text562"><tspan
           x="0 160.5632 334.23358 507.90399 678.29761 753.664 907.67358 1019.0848 1091.1743 1264.8447 1438.5151 1517.1583"
           y="0"
           sodipodi:role="line"
           id="tspan560">Population A</tspan></text>
    </g>
    <g
       id="g564"
       transform="matrix(0.073242,0,0,0.073242,0,-18)">
      <text
         xml:space="preserve"
         transform="translate(9627.2002,2769.9199)"
         style="font-variant:normal;font-weight:normal;font-size:327.68px;font-family:F2;-inkscape-font-specification:F2;writing-mode:lr-tb;fill:#000000;fill-opacity:1;fill-rule:nonzero;stroke:none"
         id="text568"><tspan
           x="0 160.5632 334.23358 507.90399 678.29761 753.664 907.67358 1019.0848 1091.1743 1264.8447 1438.5151 1517.1583"
           y="0"
           sodipodi:role="line"
           id="tspan566">Population B</tspan></text>
    </g>
    <g
       id="g570"
       transform="scale(0.073242)">
      <text
         xml:space="preserve"
         transform="translate(2785.28,6702.0801)"
         style="font-variant:normal;font-weight:normal;font-size:327.68px;font-family:F3;-inkscape-font-specification:F3;writing-mode:lr-tb;fill:#000000;fill-opacity:1;fill-rule:nonzero;stroke:none"
         id="text574"><tspan
           x="0 137.6256 304.7424 442.36798 609.4848 737.27997 815.92316 2621.4399 2759.0654 2926.1824 3063.8079 3230.9248 3358.72 3437.363 3601.2031"
           y="0"
           sodipodi:role="line"
           id="tspan572">Locus 1Locus 2 </tspan></text>
    </g>
    <g
       id="g576"
       transform="scale(0.073242)">
      <text
         xml:space="preserve"
         transform="translate(9120.4805,6706.5601)"
         style="font-variant:normal;font-weight:normal;font-size:327.68px;font-family:F3;-inkscape-font-specification:F3;writing-mode:lr-tb;fill:#000000;fill-opacity:1;fill-rule:nonzero;stroke:none"
         id="text580"><tspan
           x="0 137.6256 304.7424 442.36798 609.4848 737.27997 815.92316 2621.4399 2759.0654 2926.1824 3063.8079 3230.9248 3358.72 3437.363 3601.2031"
           y="0"
           sodipodi:role="line"
           id="tspan578">Locus 1Locus 2 </tspan></text>
    </g>
    <g
       id="g582"
       transform="scale(0.073242)">
      <text
         xml:space="preserve"
         transform="translate(5625.1201,8995.8398)"
         style="font-variant:normal;font-weight:normal;font-size:327.68px;font-family:F3;-inkscape-font-specification:F3;writing-mode:lr-tb;fill:#000000;fill-opacity:1;fill-rule:nonzero;stroke:none"
         id="text586"><tspan
           x="0 137.6256 304.7424 442.36798 609.4848 737.27997 815.92316 2185.6255 2323.2512 2490.3679 2624.7168 2795.1104 2919.6287 2998.272 3165.3887"
           y="0"
           sodipodi:role="line"
           id="tspan584">Locus 1Locus 2 </tspan></text>
    </g>
  </g>
</svg>
